<svg width="1800" height="1800" viewBox="0 0 1800 1800" fill="none" xmlns="http://www.w3.org/2000/svg">
<mask id="mask0_311_8" style="mask-type:alpha" maskUnits="userSpaceOnUse" x="0" y="0" width="1800" height="1800">
<rect width="1800" height="1800" fill="#242424"/>
</mask>
<g mask="url(#mask0_311_8)">
<path d="M120.632 863.184L-322.37 1643.46C-342.561 1679.03 -380.299 1701 -421.189 1701C-508.778 1701 -563.439 1606.07 -519.483 1530.3L121.176 425.901C205.983 279.707 417.017 279.58 502 425.672L1145.49 1531.87C1189.13 1606.89 1135.02 1701 1048.23 1701C1007.88 1701 970.618 1679.39 950.576 1644.36L503.265 862.548C418.531 714.45 204.873 714.805 120.632 863.184Z" fill="white"/>
<path d="M1227.73 939.727L777.162 153.522C757.482 119.182 720.933 98 681.358 98C596.247 98 543.131 190.244 585.845 263.874L1229.85 1374.04C1314.54 1520.03 1525.17 1520.42 1610.4 1374.75L1724.74 1179.32C1838.19 985.418 2135.02 1065.9 2135.02 1290.57V1592.49C2135.02 1652.42 2183.6 1701 2243.51 1701C2303.43 1701 2352 1652.42 2352 1592.49V264.611C2352 172.594 2277.42 98 2185.42 98C2125.52 98 2070.24 130.163 2040.62 182.236L1610.2 939.094C1525.92 1087.29 1312.49 1087.64 1227.73 939.727Z" fill="white"/>
<path d="M120.632 863.184L-322.37 1643.46C-342.561 1679.03 -380.299 1701 -421.189 1701C-508.778 1701 -563.439 1606.07 -519.483 1530.3L121.176 425.901C205.983 279.707 417.017 279.58 502 425.672L1145.49 1531.87C1189.13 1606.89 1135.02 1701 1048.23 1701C1007.88 1701 970.618 1679.39 950.576 1644.36L503.265 862.548C418.531 714.45 204.873 714.805 120.632 863.184Z" stroke="#212121"/>
<path d="M1227.73 939.727L777.162 153.522C757.482 119.182 720.933 98 681.358 98C596.247 98 543.131 190.244 585.845 263.874L1229.85 1374.04C1314.54 1520.03 1525.17 1520.42 1610.4 1374.75L1724.74 1179.32C1838.19 985.418 2135.02 1065.9 2135.02 1290.57V1592.49C2135.02 1652.42 2183.6 1701 2243.51 1701C2303.43 1701 2352 1652.42 2352 1592.49V264.611C2352 172.594 2277.42 98 2185.42 98C2125.52 98 2070.24 130.163 2040.62 182.236L1610.2 939.094C1525.92 1087.29 1312.49 1087.64 1227.73 939.727Z" stroke="#212121"/>
</g>
</svg>
