<svg width="1603" height="1603" viewBox="0 0 1603 1603" fill="none" xmlns="http://www.w3.org/2000/svg">
<path d="M398.651 783.423L171.856 1182.57C161.519 1200.76 142.199 1212 121.265 1212C76.4245 1212 48.4405 1163.44 70.9439 1124.68L398.929 559.735C442.346 484.951 550.385 484.885 593.892 559.617L923.325 1125.48C945.668 1163.86 917.964 1212 873.536 1212C852.878 1212 833.801 1200.94 823.541 1183.03L594.54 783.098C551.16 707.339 441.778 707.521 398.651 783.423Z" fill="white"/>
<path d="M965.427 822.578L734.761 420.402C724.686 402.835 705.975 392 685.715 392C642.142 392 614.95 439.186 636.816 476.852L966.516 1044.75C1009.87 1119.42 1117.71 1119.62 1161.34 1045.11L1219.87 945.141C1277.95 845.95 1429.92 887.121 1429.92 1002.05V1156.49C1429.92 1187.15 1454.79 1212 1485.46 1212C1516.13 1212 1541 1187.15 1541 1156.49V477.228C1541 430.158 1502.82 392 1455.72 392C1425.06 392 1396.75 408.453 1381.59 435.09L1161.24 822.254C1118.09 898.063 1008.82 898.243 965.427 822.578Z" fill="white"/>
<path d="M398.651 783.423L171.856 1182.57C161.519 1200.76 142.199 1212 121.265 1212C76.4245 1212 48.4405 1163.44 70.9439 1124.68L398.929 559.735C442.346 484.951 550.385 484.885 593.892 559.617L923.325 1125.48C945.668 1163.86 917.964 1212 873.536 1212C852.878 1212 833.801 1200.94 823.541 1183.03L594.54 783.098C551.16 707.339 441.778 707.521 398.651 783.423Z" stroke="#212121"/>
<path d="M965.427 822.578L734.761 420.402C724.686 402.835 705.975 392 685.715 392C642.142 392 614.95 439.186 636.816 476.852L966.516 1044.75C1009.87 1119.42 1117.71 1119.62 1161.34 1045.11L1219.87 945.141C1277.95 845.95 1429.92 887.121 1429.92 1002.05V1156.49C1429.92 1187.15 1454.79 1212 1485.46 1212C1516.13 1212 1541 1187.15 1541 1156.49V477.228C1541 430.158 1502.82 392 1455.72 392C1425.06 392 1396.75 408.453 1381.59 435.09L1161.24 822.254C1118.09 898.063 1008.82 898.243 965.427 822.578Z" stroke="#212121"/>
</svg>
