<svg width="1603" height="1603" viewBox="0 0 1603 1603" fill="none" xmlns="http://www.w3.org/2000/svg">
<rect width="1603" height="1603" fill="white"/>
<path d="M428.67 784.305L218.754 1153.76C209.187 1170.6 191.305 1181 171.929 1181C130.425 1181 104.524 1136.05 125.353 1100.17L428.928 577.257C469.113 508.036 569.112 507.976 609.381 577.148L914.295 1100.92C934.975 1136.44 909.334 1181 868.212 1181C849.091 1181 831.434 1170.77 821.938 1154.18L609.98 784.004C569.829 713.881 468.588 714.049 428.67 784.305Z" fill="#333333"/>
<path d="M953.264 820.547L739.766 448.289C730.44 432.029 713.122 422 694.369 422C654.04 422 628.871 465.676 649.11 500.539L954.272 1026.19C994.399 1095.31 1094.21 1095.5 1134.59 1026.53L1188.77 933.993C1242.53 842.181 1383.19 880.289 1383.19 986.666V1129.62C1383.19 1158 1406.2 1181 1434.59 1181C1462.98 1181 1486 1158 1486 1129.62V500.888C1486 457.319 1450.66 422 1407.07 422C1378.68 422 1352.49 437.229 1338.46 461.885L1134.5 820.247C1094.57 890.416 993.432 890.584 953.264 820.547Z" fill="#333333"/>
<path d="M428.67 784.305L218.754 1153.76C209.187 1170.6 191.305 1181 171.929 1181C130.425 1181 104.524 1136.05 125.353 1100.17L428.928 577.257C469.113 508.036 569.112 507.976 609.381 577.148L914.295 1100.92C934.975 1136.44 909.334 1181 868.212 1181C849.091 1181 831.434 1170.77 821.938 1154.18L609.98 784.004C569.829 713.881 468.588 714.049 428.67 784.305Z" stroke="#212121"/>
<path d="M953.264 820.547L739.766 448.289C730.44 432.029 713.122 422 694.369 422C654.04 422 628.871 465.676 649.11 500.539L954.272 1026.19C994.399 1095.31 1094.21 1095.5 1134.59 1026.53L1188.77 933.993C1242.53 842.181 1383.19 880.289 1383.19 986.666V1129.62C1383.19 1158 1406.2 1181 1434.59 1181C1462.98 1181 1486 1158 1486 1129.62V500.888C1486 457.319 1450.66 422 1407.07 422C1378.68 422 1352.49 437.229 1338.46 461.885L1134.5 820.247C1094.57 890.416 993.432 890.584 953.264 820.547Z" stroke="#212121"/>
</svg>
